<svg xmlns="http://www.w3.org/2000/svg" viewBox="0 0 76.35 72.422">
  <g id="Group_1" data-name="Group 1" transform="translate(-59.513 -26.124)">
    <path id="Path_1" data-name="Path 1" d="M488.747,562.817c1.817.114,22.259,0,22.259,0s.554-.172.265-.644a12.253,12.253,0,0,0-2.158-1.931c-1.06-.871-1.4-5.64-1.4-5.64H491.927s-.227,3.823-1.249,5.451c-.435.693-1.048.914-1.666,1.4C488.29,562.024,487.7,562.752,488.747,562.817Z" transform="translate(-401.977 -464.321)" fill="#fff"/>
    <path id="Path_2" data-name="Path 2" d="M361.919,333.282h65.952V296.355H416.394l4.158-5.073h9.481a4.1,4.1,0,0,1,2.077.9,3.456,3.456,0,0,1,.75,2.008v44.162a5.286,5.286,0,0,1-.638,2.761,3.336,3.336,0,0,1-2.19,1.065H359.507a4.143,4.143,0,0,1-2.015-.833,3.955,3.955,0,0,1-.98-1.911V294.193a2.633,2.633,0,0,1,2.994-2.911h44.079l-3.16,5.073H361.919Z" transform="translate(-297 -254.381)" fill="#fff"/>
    <path id="Path_3" data-name="Path 3" d="M452.727,429.385a18.2,18.2,0,0,0,7.4.655,29.911,29.911,0,0,0,3.567-.482,21.937,21.937,0,0,0,3.136-1.034,4.109,4.109,0,0,0,1.4-.9,4.361,4.361,0,0,0,.728-1.223,3.616,3.616,0,0,0-.487-2.05,7.64,7.64,0,0,0-1.908-1.861,4.9,4.9,0,0,0-1.555-.793,9.492,9.492,0,0,0-2.115-.293,4.931,4.931,0,0,0-1.969.844,4.354,4.354,0,0,0-1.154,1.706,10.146,10.146,0,0,1-.965,2.843,3.836,3.836,0,0,1-1.564,1.809C455.187,429.54,452.327,429.2,452.727,429.385Z" transform="translate(-373.68 -358.127)" fill="#fff"/>
    <path id="Path_4" data-name="Path 4" d="M518.621,273.833l3.291,2.722,27.878-30.282a9.377,9.377,0,0,0,1.318-3.821,5.5,5.5,0,0,0-1.141-3.213,4.93,4.93,0,0,0-1.032-.716,5.089,5.089,0,0,0-1.208-.387l-.31,1.1a10.063,10.063,0,0,0-2.091,1.517,6.105,6.105,0,0,0-1.234,1.835l-1.509-1.213a5.145,5.145,0,0,1,.958-1.162,3.906,3.906,0,0,1,1.937-.867,5.744,5.744,0,0,1,1.938-.11l.31-1.1a7.089,7.089,0,0,0-3.206.568,8.683,8.683,0,0,0-2.635,2.258Z" transform="translate(-426.245 -212)" fill="#fff"/>
  </g>
</svg>
